<svg xmlns="http://www.w3.org/2000/svg" viewBox="0 0 780 180">
  <defs>
    <linearGradient id="g" x1="0" x2="1">
      <stop offset="0" stop-color="#ff3b30"/>
      <stop offset=".5" stop-color="#e10600"/>
      <stop offset="1" stop-color="#b00000"/>
    </linearGradient>
  </defs>
  <g fill="url(#g)">
    <path d="M40 130c0-44 36-80 80-80h210c20 0 36 16 36 36s-16 36-36 36H140c-6 0-10 4-10 10s4 10 10 10h260c20 0 36 16 36 36H120C76 178 40 150 40 130z"/>
    <path d="M430 50h110c20 0 36 16 36 36s-16 36-36 36H430c-20 0-36-16-36-36s16-36 36-36z"/>
    <rect x="570" y="50" width="170" height="72" rx="18"/>
  </g>
</svg>